<svg width="25" height="25" viewBox="0 0 18 17" fill="none" xmlns="http://www.w3.org/2000/svg">
<path d="M15.95 1.47017C16.4159 1.93344 16.7857 2.48424 17.038 3.09091C17.2903 3.69758 17.4202 4.34813 17.4202 5.00517C17.4202 5.66221 17.2903 6.31277 17.038 6.91944C16.7857 7.5261 16.4159 8.07691 15.95 8.54017C14.44 10.0502 12.2 10.3802 10.36 9.55017L8.49 12.8602L5.5 13.1702L4 16.8902H1L0 14.8902L7.95 7.20017C7.03 5.33017 7.33 3.02017 8.88 1.47017C9.34327 1.00425 9.89407 0.634502 10.5007 0.382195C11.1074 0.129888 11.758 0 12.415 0C13.072 0 13.7226 0.129888 14.3293 0.382195C14.9359 0.634502 15.4867 1.00425 15.95 1.47017V1.47017ZM13.44 5.26017C14.18 5.26017 14.77 4.66017 14.77 3.92017C14.77 3.56744 14.6299 3.22915 14.3805 2.97972C14.131 2.7303 13.7927 2.59017 13.44 2.59017C13.0873 2.59017 12.749 2.7303 12.4995 2.97972C12.2501 3.22915 12.11 3.56744 12.11 3.92017C12.11 4.66017 12.71 5.26017 13.44 5.26017Z" fill="black"/>
</svg>
